<svg width="101" height="48" viewBox="0 0 101 48" fill="none" xmlns="http://www.w3.org/2000/svg">
<path d="M71 27L77 21L83 27" stroke="white" stroke-width="2"/>
<path opacity="0.6" d="M2.00537 30V20.7578H5.02686C6.02979 20.7578 6.78304 20.9652 7.28662 21.3799C7.79443 21.7946 8.04834 22.4082 8.04834 23.2207C8.04834 23.6523 7.92562 24.0353 7.68018 24.3696C7.43473 24.6997 7.10042 24.9557 6.67725 25.1377C7.1766 25.2773 7.57015 25.5439 7.85791 25.9375C8.1499 26.3268 8.2959 26.7923 8.2959 27.334C8.2959 28.1634 8.02718 28.8151 7.48975 29.2891C6.95231 29.763 6.19271 30 5.21094 30H2.00537ZM3.22412 25.6772V29.0034H5.23633C5.80339 29.0034 6.24984 28.8574 6.57568 28.5654C6.90576 28.2692 7.0708 27.863 7.0708 27.3467C7.0708 26.2337 6.46566 25.6772 5.25537 25.6772H3.22412ZM3.22412 24.6997H5.06494C5.59814 24.6997 6.02344 24.5664 6.34082 24.2998C6.66243 24.0332 6.82324 23.6714 6.82324 23.2144C6.82324 22.7065 6.67513 22.3384 6.37891 22.1099C6.08268 21.8771 5.632 21.7607 5.02686 21.7607H3.22412V24.6997ZM10.0288 30V23.1318H12.7075C13.6216 23.1318 14.3219 23.2926 14.8086 23.6143C15.2995 23.9316 15.5449 24.3993 15.5449 25.0171C15.5449 25.3345 15.4497 25.6222 15.2593 25.8804C15.0688 26.1343 14.7874 26.3289 14.415 26.4644C14.8298 26.5617 15.1619 26.7521 15.4116 27.0356C15.6655 27.3192 15.7925 27.6577 15.7925 28.0513C15.7925 28.6818 15.5597 29.1642 15.0942 29.4985C14.633 29.8328 13.9792 30 13.1328 30H10.0288ZM11.2031 26.9849V29.0542H13.1455C13.6364 29.0542 14.0024 28.9632 14.2437 28.7812C14.4891 28.5993 14.6118 28.3433 14.6118 28.0132C14.6118 27.3276 14.1082 26.9849 13.1011 26.9849H11.2031ZM11.2031 26.0454H12.7202C13.8205 26.0454 14.3706 25.7238 14.3706 25.0806C14.3706 24.4373 13.8501 24.1051 12.8091 24.084H11.2031V26.0454ZM20.1978 30.127C19.2668 30.127 18.5093 29.8223 17.9253 29.2129C17.3413 28.5993 17.0493 27.7804 17.0493 26.7563V26.5405C17.0493 25.8592 17.1784 25.252 17.4365 24.7188C17.6989 24.1813 18.0628 23.7624 18.5283 23.4619C18.998 23.1572 19.5059 23.0049 20.0518 23.0049C20.9447 23.0049 21.6387 23.299 22.1338 23.8872C22.6289 24.4754 22.8765 25.3175 22.8765 26.4136V26.9023H18.2236C18.2406 27.5794 18.4373 28.1274 18.814 28.5464C19.1948 28.9611 19.6772 29.1685 20.2612 29.1685C20.6759 29.1685 21.0272 29.0838 21.3149 28.9146C21.6027 28.7453 21.8545 28.521 22.0703 28.2417L22.7876 28.8003C22.2121 29.6847 21.3488 30.127 20.1978 30.127ZM20.0518 23.9697C19.5778 23.9697 19.18 24.1432 18.8584 24.4902C18.5368 24.833 18.3379 25.3154 18.2617 25.9375H21.7021V25.8486C21.6683 25.252 21.5075 24.7907 21.2197 24.4648C20.932 24.1348 20.5426 23.9697 20.0518 23.9697ZM30.043 26.6421C30.043 27.6873 29.8039 28.5295 29.3257 29.1685C28.8475 29.8075 28.2 30.127 27.3833 30.127C26.5496 30.127 25.8937 29.8625 25.4155 29.3335V32.6406H24.2412V23.1318H25.314L25.3711 23.8936C25.8493 23.3011 26.5137 23.0049 27.3643 23.0049C28.1895 23.0049 28.8411 23.3159 29.3193 23.938C29.8018 24.5601 30.043 25.4255 30.043 26.5342V26.6421ZM28.8687 26.5088C28.8687 25.7344 28.7036 25.1229 28.3735 24.6743C28.0435 24.2257 27.5907 24.0015 27.0151 24.0015C26.3042 24.0015 25.771 24.3167 25.4155 24.9473V28.229C25.7668 28.8553 26.3042 29.1685 27.0278 29.1685C27.5907 29.1685 28.0371 28.9463 28.3672 28.502C28.7015 28.0534 28.8687 27.389 28.8687 26.5088ZM33.7437 25.6392L35.2671 23.1318H36.6382L34.3911 26.5278L36.708 30H35.3496L33.7627 27.4292L32.1758 30H30.811L33.1279 26.5278L30.8809 23.1318H32.2393L33.7437 25.6392Z" fill="white"/>
<circle opacity="0.2" cx="77" cy="24" r="24" fill="white"/>
</svg>
